<?xml version="1.0" encoding="UTF-8"?>
<svg id="Livello_2" data-name="Livello 2" xmlns="http://www.w3.org/2000/svg" viewBox="0 0 34.63 43.31">
  <defs>
    <style>
      .cls-1 {
        fill: #ffe35b;
      }

      .cls-1, .cls-2 {
        stroke-width: 0px;
      }

      .cls-3 {
        fill: none;
        stroke: #1d1d1b;
        stroke-miterlimit: 3.86;
        stroke-width: .71px;
      }

      .cls-2 {
        fill: #1d1d1b;
      }
    </style>
  </defs>
  <g id="Livello_1-2" data-name="Livello 1">
    <path class="cls-2" d="M30.37,3.25v-1.2h.8c.4,0,.9.1.9.6,0,.6-.4.6-1,.6h-.7ZM30.37,3.75h.7l1,1.7h.7l-1.1-1.7c.6-.1,1-.4,1-1.1,0-.8-.5-1.1-1.4-1.1h-1.5v3.9h.6v-1.7ZM28.27,3.45c0-1.6,1.2-2.8,2.8-2.8,1.5,0,2.8,1.2,2.8,2.8s-1.2,2.8-2.8,2.8-2.8-1.2-2.8-2.8M31.07,6.85c1.9,0,3.4-1.4,3.4-3.4S32.87.05,31.07.05c-1.9,0-3.5,1.4-3.5,3.4s1.6,3.4,3.5,3.4"/>
    <path class="cls-1" d="M17.07,42.95c-7.9,0-14.5-5.3-16.6-12.5h9.1c1.6,2.5,4.2,4.3,7.4,4.3,3.7,0,6.8-2.2,8.2-5.4H.77V.35h8.9v10c2.3-1.1,4.8-1.7,7.4-1.7,7.6,0,14,4.9,16.3,11.7h-9.2c-1.6-2.1-4.2-3.5-7-3.5-3.4,0-6.4,1.9-7.9,4.6h24.5c.4,1.4.5,2.8.5,4.3,0,9.5-7.7,17.2-17.2,17.2"/>
    <path class="cls-3" d="M17.07,42.95c-7.9,0-14.5-5.3-16.6-12.5h9.1c1.6,2.5,4.2,4.3,7.4,4.3,3.7,0,6.8-2.2,8.2-5.4H.77V.35h8.9v10c2.3-1.1,4.8-1.7,7.4-1.7,7.6,0,14,4.9,16.3,11.7h-9.2c-1.6-2.1-4.2-3.5-7-3.5-3.4,0-6.4,1.9-7.9,4.6h24.5c.4,1.4.5,2.8.5,4.3,0,9.5-7.7,17.2-17.2,17.2"/>
  </g>
</svg>